# xmcd
#
# Track frame offsets: 
#        150
#        15015
#        41260
#        52881
#        73966
#        96919
#        123738
#        140863
#        165385
#        199594
#
# Disc length: 2893 seconds
#
# Revision: 0
# Processed by: cddbd v1.5.2PL0 Copyright (c) Steve Scherf et al.
# Submitted via: ExactAudioCopyFreeDBPlugin 1.0
#
DISCID=830b4b0a
DTITLE=Ori Naftaly - A Ture Friend (Is Hard To Find)
DYEAR=2012
DGENRE=Blues
TTITLE0=Devil Red Blues
TTITLE1=I'm a Woman
TTITLE2=Can't Get No Grinding
TTITLE3=Help Me
TTITLE4=Dust My Broom
TTITLE5=She's 19 Years Old
TTITLE6=Don't Go No Further
TTITLE7=Almost Cut My Hair
TTITLE8=It's a Man's World
TTITLE9=A Ture Friend
EXTD=
EXTT0=
EXTT1=
EXTT2=
EXTT3=
EXTT4=
EXTT5=
EXTT6=
EXTT7=
EXTT8=
EXTT9=
PLAYORDER=
